<svg xmlns="http://www.w3.org/2000/svg" viewBox="0 0 800 500" width="800" height="500" role="img" aria-label="Empty 8-row by 10-column game matrix">
  <title id="matrix-title">Empty game matrix</title>
  <desc id="matrix-desc">Eight rows labeled r1 through r8 and ten columns labeled c1 through c10. All cells are empty.</desc>
  <g id="matrixId" aria-label="8 by 10 empty matrix">
    <g id="column-labels" fill="#111111" font-family="sans-serif" font-size="14" text-anchor="middle" dominant-baseline="middle">
      <text id="column-label-c1" x="132.5" y="68">c1</text>
      <text id="column-label-c2" x="197.5" y="68">c2</text>
      <text id="column-label-c3" x="262.5" y="68">c3</text>
      <text id="column-label-c4" x="327.5" y="68">c4</text>
      <text id="column-label-c5" x="392.5" y="68">c5</text>
      <text id="column-label-c6" x="457.5" y="68">c6</text>
      <text id="column-label-c7" x="522.5" y="68">c7</text>
      <text id="column-label-c8" x="587.5" y="68">c8</text>
      <text id="column-label-c9" x="652.5" y="68">c9</text>
      <text id="column-label-c10" x="717.5" y="68">c10</text>
    </g>
    <g id="row-labels" fill="#111111" font-family="sans-serif" font-size="14" text-anchor="middle" dominant-baseline="middle">
      <text id="row-label-r1" x="68" y="120">r1</text>
      <text id="row-label-r2" x="68" y="160">r2</text>
      <text id="row-label-r3" x="68" y="200">r3</text>
      <text id="row-label-r4" x="68" y="240">r4</text>
      <text id="row-label-r5" x="68" y="280">r5</text>
      <text id="row-label-r6" x="68" y="320">r6</text>
      <text id="row-label-r7" x="68" y="360">r7</text>
      <text id="row-label-r8" x="68" y="400">r8</text>
    </g>
    <g id="matrix-cells" fill="#ffffff" stroke="#111111" stroke-width="1">
      <rect id="matrixId-cell-0-0" x="100" y="100" width="65" height="40"/>
      <rect id="matrixId-cell-0-1" x="165" y="100" width="65" height="40"/>
      <rect id="matrixId-cell-0-2" x="230" y="100" width="65" height="40"/>
      <rect id="matrixId-cell-0-3" x="295" y="100" width="65" height="40"/>
      <rect id="matrixId-cell-0-4" x="360" y="100" width="65" height="40"/>
      <rect id="matrixId-cell-0-5" x="425" y="100" width="65" height="40"/>
      <rect id="matrixId-cell-0-6" x="490" y="100" width="65" height="40"/>
      <rect id="matrixId-cell-0-7" x="555" y="100" width="65" height="40"/>
      <rect id="matrixId-cell-0-8" x="620" y="100" width="65" height="40"/>
      <rect id="matrixId-cell-0-9" x="685" y="100" width="65" height="40"/>
      <rect id="matrixId-cell-1-0" x="100" y="140" width="65" height="40"/>
      <rect id="matrixId-cell-1-1" x="165" y="140" width="65" height="40"/>
      <rect id="matrixId-cell-1-2" x="230" y="140" width="65" height="40"/>
      <rect id="matrixId-cell-1-3" x="295" y="140" width="65" height="40"/>
      <rect id="matrixId-cell-1-4" x="360" y="140" width="65" height="40"/>
      <rect id="matrixId-cell-1-5" x="425" y="140" width="65" height="40"/>
      <rect id="matrixId-cell-1-6" x="490" y="140" width="65" height="40"/>
      <rect id="matrixId-cell-1-7" x="555" y="140" width="65" height="40"/>
      <rect id="matrixId-cell-1-8" x="620" y="140" width="65" height="40"/>
      <rect id="matrixId-cell-1-9" x="685" y="140" width="65" height="40"/>
      <rect id="matrixId-cell-2-0" x="100" y="180" width="65" height="40"/>
      <rect id="matrixId-cell-2-1" x="165" y="180" width="65" height="40"/>
      <rect id="matrixId-cell-2-2" x="230" y="180" width="65" height="40"/>
      <rect id="matrixId-cell-2-3" x="295" y="180" width="65" height="40"/>
      <rect id="matrixId-cell-2-4" x="360" y="180" width="65" height="40"/>
      <rect id="matrixId-cell-2-5" x="425" y="180" width="65" height="40"/>
      <rect id="matrixId-cell-2-6" x="490" y="180" width="65" height="40"/>
      <rect id="matrixId-cell-2-7" x="555" y="180" width="65" height="40"/>
      <rect id="matrixId-cell-2-8" x="620" y="180" width="65" height="40"/>
      <rect id="matrixId-cell-2-9" x="685" y="180" width="65" height="40"/>
      <rect id="matrixId-cell-3-0" x="100" y="220" width="65" height="40"/>
      <rect id="matrixId-cell-3-1" x="165" y="220" width="65" height="40"/>
      <rect id="matrixId-cell-3-2" x="230" y="220" width="65" height="40"/>
      <rect id="matrixId-cell-3-3" x="295" y="220" width="65" height="40"/>
      <rect id="matrixId-cell-3-4" x="360" y="220" width="65" height="40"/>
      <rect id="matrixId-cell-3-5" x="425" y="220" width="65" height="40"/>
      <rect id="matrixId-cell-3-6" x="490" y="220" width="65" height="40"/>
      <rect id="matrixId-cell-3-7" x="555" y="220" width="65" height="40"/>
      <rect id="matrixId-cell-3-8" x="620" y="220" width="65" height="40"/>
      <rect id="matrixId-cell-3-9" x="685" y="220" width="65" height="40"/>
      <rect id="matrixId-cell-4-0" x="100" y="260" width="65" height="40"/>
      <rect id="matrixId-cell-4-1" x="165" y="260" width="65" height="40"/>
      <rect id="matrixId-cell-4-2" x="230" y="260" width="65" height="40"/>
      <rect id="matrixId-cell-4-3" x="295" y="260" width="65" height="40"/>
      <rect id="matrixId-cell-4-4" x="360" y="260" width="65" height="40"/>
      <rect id="matrixId-cell-4-5" x="425" y="260" width="65" height="40"/>
      <rect id="matrixId-cell-4-6" x="490" y="260" width="65" height="40"/>
      <rect id="matrixId-cell-4-7" x="555" y="260" width="65" height="40"/>
      <rect id="matrixId-cell-4-8" x="620" y="260" width="65" height="40"/>
      <rect id="matrixId-cell-4-9" x="685" y="260" width="65" height="40"/>
      <rect id="matrixId-cell-5-0" x="100" y="300" width="65" height="40"/>
      <rect id="matrixId-cell-5-1" x="165" y="300" width="65" height="40"/>
      <rect id="matrixId-cell-5-2" x="230" y="300" width="65" height="40"/>
      <rect id="matrixId-cell-5-3" x="295" y="300" width="65" height="40"/>
      <rect id="matrixId-cell-5-4" x="360" y="300" width="65" height="40"/>
      <rect id="matrixId-cell-5-5" x="425" y="300" width="65" height="40"/>
      <rect id="matrixId-cell-5-6" x="490" y="300" width="65" height="40"/>
      <rect id="matrixId-cell-5-7" x="555" y="300" width="65" height="40"/>
      <rect id="matrixId-cell-5-8" x="620" y="300" width="65" height="40"/>
      <rect id="matrixId-cell-5-9" x="685" y="300" width="65" height="40"/>
      <rect id="matrixId-cell-6-0" x="100" y="340" width="65" height="40"/>
      <rect id="matrixId-cell-6-1" x="165" y="340" width="65" height="40"/>
      <rect id="matrixId-cell-6-2" x="230" y="340" width="65" height="40"/>
      <rect id="matrixId-cell-6-3" x="295" y="340" width="65" height="40"/>
      <rect id="matrixId-cell-6-4" x="360" y="340" width="65" height="40"/>
      <rect id="matrixId-cell-6-5" x="425" y="340" width="65" height="40"/>
      <rect id="matrixId-cell-6-6" x="490" y="340" width="65" height="40"/>
      <rect id="matrixId-cell-6-7" x="555" y="340" width="65" height="40"/>
      <rect id="matrixId-cell-6-8" x="620" y="340" width="65" height="40"/>
      <rect id="matrixId-cell-6-9" x="685" y="340" width="65" height="40"/>
      <rect id="matrixId-cell-7-0" x="100" y="380" width="65" height="40"/>
      <rect id="matrixId-cell-7-1" x="165" y="380" width="65" height="40"/>
      <rect id="matrixId-cell-7-2" x="230" y="380" width="65" height="40"/>
      <rect id="matrixId-cell-7-3" x="295" y="380" width="65" height="40"/>
      <rect id="matrixId-cell-7-4" x="360" y="380" width="65" height="40"/>
      <rect id="matrixId-cell-7-5" x="425" y="380" width="65" height="40"/>
      <rect id="matrixId-cell-7-6" x="490" y="380" width="65" height="40"/>
      <rect id="matrixId-cell-7-7" x="555" y="380" width="65" height="40"/>
      <rect id="matrixId-cell-7-8" x="620" y="380" width="65" height="40"/>
      <rect id="matrixId-cell-7-9" x="685" y="380" width="65" height="40"/>
    </g>
  </g>
</svg>