<svg xmlns="http://www.w3.org/2000/svg" viewBox="0 0 800 500" width="800" height="500" role="img" aria-label="Empty 8-row by 10-column game matrix">
  <g id="game-matrix" fill="white" stroke="#222222" stroke-width="1">
    <rect id="matrixId-cell-0-0" x="100" y="80" width="62" height="43"/><rect id="matrixId-cell-0-1" x="162" y="80" width="62" height="43"/><rect id="matrixId-cell-0-2" x="224" y="80" width="62" height="43"/><rect id="matrixId-cell-0-3" x="286" y="80" width="62" height="43"/><rect id="matrixId-cell-0-4" x="348" y="80" width="62" height="43"/><rect id="matrixId-cell-0-5" x="410" y="80" width="62" height="43"/><rect id="matrixId-cell-0-6" x="472" y="80" width="62" height="43"/><rect id="matrixId-cell-0-7" x="534" y="80" width="62" height="43"/><rect id="matrixId-cell-0-8" x="596" y="80" width="62" height="43"/><rect id="matrixId-cell-0-9" x="658" y="80" width="62" height="43"/>
    <rect id="matrixId-cell-1-0" x="100" y="123" width="62" height="43"/><rect id="matrixId-cell-1-1" x="162" y="123" width="62" height="43"/><rect id="matrixId-cell-1-2" x="224" y="123" width="62" height="43"/><rect id="matrixId-cell-1-3" x="286" y="123" width="62" height="43"/><rect id="matrixId-cell-1-4" x="348" y="123" width="62" height="43"/><rect id="matrixId-cell-1-5" x="410" y="123" width="62" height="43"/><rect id="matrixId-cell-1-6" x="472" y="123" width="62" height="43"/><rect id="matrixId-cell-1-7" x="534" y="123" width="62" height="43"/><rect id="matrixId-cell-1-8" x="596" y="123" width="62" height="43"/><rect id="matrixId-cell-1-9" x="658" y="123" width="62" height="43"/>
    <rect id="matrixId-cell-2-0" x="100" y="166" width="62" height="43"/><rect id="matrixId-cell-2-1" x="162" y="166" width="62" height="43"/><rect id="matrixId-cell-2-2" x="224" y="166" width="62" height="43"/><rect id="matrixId-cell-2-3" x="286" y="166" width="62" height="43"/><rect id="matrixId-cell-2-4" x="348" y="166" width="62" height="43"/><rect id="matrixId-cell-2-5" x="410" y="166" width="62" height="43"/><rect id="matrixId-cell-2-6" x="472" y="166" width="62" height="43"/><rect id="matrixId-cell-2-7" x="534" y="166" width="62" height="43"/><rect id="matrixId-cell-2-8" x="596" y="166" width="62" height="43"/><rect id="matrixId-cell-2-9" x="658" y="166" width="62" height="43"/>
    <rect id="matrixId-cell-3-0" x="100" y="209" width="62" height="43"/><rect id="matrixId-cell-3-1" x="162" y="209" width="62" height="43"/><rect id="matrixId-cell-3-2" x="224" y="209" width="62" height="43"/><rect id="matrixId-cell-3-3" x="286" y="209" width="62" height="43"/><rect id="matrixId-cell-3-4" x="348" y="209" width="62" height="43"/><rect id="matrixId-cell-3-5" x="410" y="209" width="62" height="43"/><rect id="matrixId-cell-3-6" x="472" y="209" width="62" height="43"/><rect id="matrixId-cell-3-7" x="534" y="209" width="62" height="43"/><rect id="matrixId-cell-3-8" x="596" y="209" width="62" height="43"/><rect id="matrixId-cell-3-9" x="658" y="209" width="62" height="43"/>
    <rect id="matrixId-cell-4-0" x="100" y="252" width="62" height="43"/><rect id="matrixId-cell-4-1" x="162" y="252" width="62" height="43"/><rect id="matrixId-cell-4-2" x="224" y="252" width="62" height="43"/><rect id="matrixId-cell-4-3" x="286" y="252" width="62" height="43"/><rect id="matrixId-cell-4-4" x="348" y="252" width="62" height="43"/><rect id="matrixId-cell-4-5" x="410" y="252" width="62" height="43"/><rect id="matrixId-cell-4-6" x="472" y="252" width="62" height="43"/><rect id="matrixId-cell-4-7" x="534" y="252" width="62" height="43"/><rect id="matrixId-cell-4-8" x="596" y="252" width="62" height="43"/><rect id="matrixId-cell-4-9" x="658" y="252" width="62" height="43"/>
    <rect id="matrixId-cell-5-0" x="100" y="295" width="62" height="43"/><rect id="matrixId-cell-5-1" x="162" y="295" width="62" height="43"/><rect id="matrixId-cell-5-2" x="224" y="295" width="62" height="43"/><rect id="matrixId-cell-5-3" x="286" y="295" width="62" height="43"/><rect id="matrixId-cell-5-4" x="348" y="295" width="62" height="43"/><rect id="matrixId-cell-5-5" x="410" y="295" width="62" height="43"/><rect id="matrixId-cell-5-6" x="472" y="295" width="62" height="43"/><rect id="matrixId-cell-5-7" x="534" y="295" width="62" height="43"/><rect id="matrixId-cell-5-8" x="596" y="295" width="62" height="43"/><rect id="matrixId-cell-5-9" x="658" y="295" width="62" height="43"/>
    <rect id="matrixId-cell-6-0" x="100" y="338" width="62" height="43"/><rect id="matrixId-cell-6-1" x="162" y="338" width="62" height="43"/><rect id="matrixId-cell-6-2" x="224" y="338" width="62" height="43"/><rect id="matrixId-cell-6-3" x="286" y="338" width="62" height="43"/><rect id="matrixId-cell-6-4" x="348" y="338" width="62" height="43"/><rect id="matrixId-cell-6-5" x="410" y="338" width="62" height="43"/><rect id="matrixId-cell-6-6" x="472" y="338" width="62" height="43"/><rect id="matrixId-cell-6-7" x="534" y="338" width="62" height="43"/><rect id="matrixId-cell-6-8" x="596" y="338" width="62" height="43"/><rect id="matrixId-cell-6-9" x="658" y="338" width="62" height="43"/>
    <rect id="matrixId-cell-7-0" x="100" y="381" width="62" height="43"/><rect id="matrixId-cell-7-1" x="162" y="381" width="62" height="43"/><rect id="matrixId-cell-7-2" x="224" y="381" width="62" height="43"/><rect id="matrixId-cell-7-3" x="286" y="381" width="62" height="43"/><rect id="matrixId-cell-7-4" x="348" y="381" width="62" height="43"/><rect id="matrixId-cell-7-5" x="410" y="381" width="62" height="43"/><rect id="matrixId-cell-7-6" x="472" y="381" width="62" height="43"/><rect id="matrixId-cell-7-7" x="534" y="381" width="62" height="43"/><rect id="matrixId-cell-7-8" x="596" y="381" width="62" height="43"/><rect id="matrixId-cell-7-9" x="658" y="381" width="62" height="43"/>
  </g>
  <g id="column-labels" fill="#222222" stroke="none" font-family="sans-serif" font-size="14" text-anchor="middle" dominant-baseline="middle">
    <text id="column-c1" x="131" y="61">c1</text><text id="column-c2" x="193" y="61">c2</text><text id="column-c3" x="255" y="61">c3</text><text id="column-c4" x="317" y="61">c4</text><text id="column-c5" x="379" y="61">c5</text><text id="column-c6" x="441" y="61">c6</text><text id="column-c7" x="503" y="61">c7</text><text id="column-c8" x="565" y="61">c8</text><text id="column-c9" x="627" y="61">c9</text><text id="column-c10" x="689" y="61">c10</text>
  </g>
  <g id="row-labels" fill="#222222" stroke="none" font-family="sans-serif" font-size="14" text-anchor="end" dominant-baseline="middle">
    <text id="row-r1" x="84" y="101.5">r1</text><text id="row-r2" x="84" y="144.5">r2</text><text id="row-r3" x="84" y="187.5">r3</text><text id="row-r4" x="84" y="230.5">r4</text><text id="row-r5" x="84" y="273.5">r5</text><text id="row-r6" x="84" y="316.5">r6</text><text id="row-r7" x="84" y="359.5">r7</text><text id="row-r8" x="84" y="402.5">r8</text>
  </g>
</svg>