<svg xmlns="http://www.w3.org/2000/svg" viewBox="0 0 800 500" width="800" height="500" fill="none" stroke="#425b70" stroke-width="2" font-family="Arial, sans-serif"><g id="game-tree"><line id="root-left" x1="400" y1="126.667" x2="293.333" y2="250"/><polyline id="root-left-arrow" points="310.587,223.936 308.379,232.604 316.637,229.169"/><text id="root-left-label" x="358.667" y="178.333" fill="#172c3f" stroke="none" font-size="14" text-anchor="middle" dominant-baseline="central">L</text><line id="root-right" x1="400" y1="126.667" x2="506.667" y2="250"/><polyline id="root-right-arrow" points="483.363,229.169 491.621,232.604 489.413,223.936"/><text id="root-right-label" x="465.333" y="178.333" fill="#172c3f" stroke="none" font-size="14" text-anchor="middle" dominant-baseline="central">R</text><line id="left-ll" x1="293.333" y1="250" x2="208" y2="373.333"/><polyline id="left-ll-arrow" points="222.349,345.565 221.087,354.419 228.928,350.116"/><text id="left-ll-label" x="262.667" y="301.667" fill="#172c3f" stroke="none" font-size="14" text-anchor="middle" dominant-baseline="central">l</text><line id="left-lr" x1="293.333" y1="250" x2="336" y2="373.333"/><polyline id="left-lr-arrow" points="322.085,345.345 328.48,351.597 329.645,342.729"/><text id="left-lr-label" x="326.667" y="301.667" fill="#172c3f" stroke="none" font-size="14" text-anchor="middle" dominant-baseline="central">r</text><line id="right-rl" x1="506.667" y1="250" x2="464" y2="373.333"/><polyline id="right-rl-arrow" points="470.355,342.729 471.52,351.597 477.915,345.345"/><text id="right-rl-label" x="497.333" y="301.667" fill="#172c3f" stroke="none" font-size="14" text-anchor="middle" dominant-baseline="central">l</text><line id="right-rr" x1="506.667" y1="250" x2="592" y2="373.333"/><polyline id="right-rr-arrow" points="571.072,350.116 578.913,354.419 577.651,345.565"/><text id="right-rr-label" x="561.333" y="301.667" fill="#172c3f" stroke="none" font-size="14" text-anchor="middle" dominant-baseline="central">r</text><g id="root"><rect id="root-box" x="355" y="105.667" width="90" height="42" rx="8" fill="#f3f7fa"/><text id="root-label" x="400" y="126.667" fill="#172c3f" stroke="none" font-size="16" text-anchor="middle" dominant-baseline="central">P1</text></g><g id="left"><rect id="left-box" x="248.333" y="229" width="90" height="42" rx="8" fill="#f3f7fa"/><text id="left-label" x="293.333" y="250" fill="#172c3f" stroke="none" font-size="16" text-anchor="middle" dominant-baseline="central">P2</text></g><g id="right"><rect id="right-box" x="461.667" y="229" width="90" height="42" rx="8" fill="#f3f7fa"/><text id="right-label" x="506.667" y="250" fill="#172c3f" stroke="none" font-size="16" text-anchor="middle" dominant-baseline="central">P2</text></g><g id="ll"><rect id="ll-box" x="163" y="352.333" width="90" height="42" rx="8" fill="#f3f7fa"/><text id="ll-label" x="208" y="373.333" fill="#172c3f" stroke="none" font-size="16" text-anchor="middle" dominant-baseline="central">(3,2)</text></g><g id="lr"><rect id="lr-box" x="291" y="352.333" width="90" height="42" rx="8" fill="#f3f7fa"/><text id="lr-label" x="336" y="373.333" fill="#172c3f" stroke="none" font-size="16" text-anchor="middle" dominant-baseline="central">(0,0)</text></g><g id="rl"><rect id="rl-box" x="419" y="352.333" width="90" height="42" rx="8" fill="#f3f7fa"/><text id="rl-label" x="464" y="373.333" fill="#172c3f" stroke="none" font-size="16" text-anchor="middle" dominant-baseline="central">(1,1)</text></g><g id="rr"><rect id="rr-box" x="547" y="352.333" width="90" height="42" rx="8" fill="#f3f7fa"/><text id="rr-label" x="592" y="373.333" fill="#172c3f" stroke="none" font-size="16" text-anchor="middle" dominant-baseline="central">(2,3)</text></g></g></svg>