<svg xmlns="http://www.w3.org/2000/svg" xmlns:xlink="http://www.w3.org/1999/xlink" version="1.1" class="marks" width="800" height="500" viewBox="0 0 773 436" style="vertical-align: bottom; background-color: white;"><g fill="none" stroke-miterlimit="4" transform="translate(38,12)"><g class="mark-group role-frame root" role="graphics-object" aria-roledescription="group mark container"><g transform="translate(0,0)"><path class="background" aria-hidden="true" d="M0.5,0.5h680v380h-680Z" fill="transparent" stroke="#222222"></path><g><g class="mark-group role-axis" aria-hidden="true"><g transform="translate(0.5,380.5)"><path class="background" aria-hidden="true" d="M0,0h0v0h0Z" pointer-events="none"></path><g><g class="mark-rule role-axis-grid" pointer-events="none"><line transform="translate(0,-380)" x2="0" y2="380" stroke="#dddddd" stroke-width="1" opacity="1"></line><line transform="translate(340,-380)" x2="0" y2="380" stroke="#dddddd" stroke-width="1" opacity="1"></line><line transform="translate(680,-380)" x2="0" y2="380" stroke="#dddddd" stroke-width="1" opacity="1"></line></g></g><path class="foreground" aria-hidden="true" d="" pointer-events="none" display="none"></path></g></g><g class="mark-group role-axis" aria-hidden="true"><g transform="translate(0.5,0.5)"><path class="background" aria-hidden="true" d="M0,0h0v0h0Z" pointer-events="none"></path><g><g class="mark-rule role-axis-grid" pointer-events="none"><line transform="translate(0,380)" x2="680" y2="0" stroke="#dddddd" stroke-width="1" opacity="1"></line><line transform="translate(0,253)" x2="680" y2="0" stroke="#dddddd" stroke-width="1" opacity="1"></line><line transform="translate(0,127)" x2="680" y2="0" stroke="#dddddd" stroke-width="1" opacity="1"></line><line transform="translate(0,0)" x2="680" y2="0" stroke="#dddddd" stroke-width="1" opacity="1"></line></g></g><path class="foreground" aria-hidden="true" d="" pointer-events="none" display="none"></path></g></g><g class="mark-group role-axis" role="graphics-symbol" aria-roledescription="axis" aria-label="X-axis titled 'Trial' for a linear scale with values from 1.0 to 3.0"><g transform="translate(0.5,380.5)"><path class="background" aria-hidden="true" d="M0,0h0v0h0Z" pointer-events="none"></path><g><g class="mark-rule role-axis-tick" pointer-events="none"><line transform="translate(0,0)" x2="0" y2="5" stroke="#222222" stroke-width="1" opacity="1"></line><line transform="translate(340,0)" x2="0" y2="5" stroke="#222222" stroke-width="1" opacity="1"></line><line transform="translate(680,0)" x2="0" y2="5" stroke="#222222" stroke-width="1" opacity="1"></line></g><g class="mark-text role-axis-label" pointer-events="none"><text text-anchor="start" transform="translate(0,18)" font-family="sans-serif" font-size="14px" fill="#222222" opacity="1">1.0</text><text text-anchor="middle" transform="translate(340,18)" font-family="sans-serif" font-size="14px" fill="#222222" opacity="1">2.0</text><text text-anchor="end" transform="translate(680,18)" font-family="sans-serif" font-size="14px" fill="#222222" opacity="1">3.0</text></g><g class="mark-rule role-axis-domain" pointer-events="none"><line transform="translate(0,0)" x2="680" y2="0" stroke="#222222" stroke-width="1" opacity="1"></line></g><g class="mark-text role-axis-title" pointer-events="none"><text text-anchor="middle" transform="translate(340,36)" font-family="sans-serif" font-size="14px" font-weight="bold" fill="#222222" opacity="1">Trial</text></g></g><path class="foreground" aria-hidden="true" d="" pointer-events="none" display="none"></path></g></g><g class="mark-group role-axis" role="graphics-symbol" aria-roledescription="axis" aria-label="Y-axis titled 'Score' for a linear scale with values from 0.0 to 3.0"><g transform="translate(0.5,0.5)"><path class="background" aria-hidden="true" d="M0,0h0v0h0Z" pointer-events="none"></path><g><g class="mark-rule role-axis-tick" pointer-events="none"><line transform="translate(0,380)" x2="-5" y2="0" stroke="#222222" stroke-width="1" opacity="1"></line><line transform="translate(0,253)" x2="-5" y2="0" stroke="#222222" stroke-width="1" opacity="1"></line><line transform="translate(0,127)" x2="-5" y2="0" stroke="#222222" stroke-width="1" opacity="1"></line><line transform="translate(0,0)" x2="-5" y2="0" stroke="#222222" stroke-width="1" opacity="1"></line></g><g class="mark-text role-axis-label" pointer-events="none"><text text-anchor="end" transform="translate(-7,384)" font-family="sans-serif" font-size="14px" fill="#222222" opacity="1">0</text><text text-anchor="end" transform="translate(-7,257.33333333333337)" font-family="sans-serif" font-size="14px" fill="#222222" opacity="1">1</text><text text-anchor="end" transform="translate(-7,130.66666666666669)" font-family="sans-serif" font-size="14px" fill="#222222" opacity="1">2</text><text text-anchor="end" transform="translate(-7,4)" font-family="sans-serif" font-size="14px" fill="#222222" opacity="1">3</text></g><g class="mark-rule role-axis-domain" pointer-events="none"><line transform="translate(0,380)" x2="0" y2="-380" stroke="#222222" stroke-width="1" opacity="1"></line></g><g class="mark-text role-axis-title" pointer-events="none"><text text-anchor="middle" transform="translate(-18.7861328125,190) rotate(-90) translate(0,-3)" font-family="sans-serif" font-size="14px" font-weight="bold" fill="#222222" opacity="1">Score</text></g></g><path class="foreground" aria-hidden="true" d="" pointer-events="none" display="none"></path></g></g><g class="mark-group role-scope layer_0_pathgroup" role="graphics-object" aria-roledescription="group mark container"><g transform="translate(0,0)"><path class="background" aria-hidden="true" d="M0,0h680v380h-680Z"></path><g><g class="mark-line role-mark layer_0_marks" role="graphics-object" aria-roledescription="line mark container"><path aria-label="Trial: 1; Score: 1; Series: A; id: A-1" role="graphics-symbol" aria-roledescription="line mark" d="M0,253.333L340,126.667L680,0" stroke="#1f4e79" stroke-width="2"></path></g></g><path class="foreground" aria-hidden="true" d="" display="none"></path></g><g transform="translate(0,0)"><path class="background" aria-hidden="true" d="M0,0h680v380h-680Z"></path><g><g class="mark-line role-mark layer_0_marks" role="graphics-object" aria-roledescription="line mark container"><path aria-label="Trial: 1; Score: 1; Series: B; id: B-1" role="graphics-symbol" aria-roledescription="line mark" d="M0,253.333L340,0L680,126.667" stroke="#a33b20" stroke-width="2"></path></g></g><path class="foreground" aria-hidden="true" d="" display="none"></path></g></g><g class="mark-symbol role-mark layer_1_marks" role="graphics-object" aria-roledescription="symbol mark container"><path aria-label="Trial: 1; Score: 1; Series: A; id: A-1" role="graphics-symbol" aria-roledescription="point" transform="translate(0,253.33333333333337)" d="M2.739,0A2.739,2.739,0,1,1,-2.739,0A2.739,2.739,0,1,1,2.739,0" fill="#1f4e79" stroke-width="2" opacity="1"></path><path aria-label="Trial: 1; Score: 1; Series: B; id: B-1" role="graphics-symbol" aria-roledescription="point" transform="translate(0,253.33333333333337)" d="M2.739,0A2.739,2.739,0,1,1,-2.739,0A2.739,2.739,0,1,1,2.739,0" fill="#a33b20" stroke-width="2" opacity="1"></path><path aria-label="Trial: 2; Score: 2; Series: A; id: A-2" role="graphics-symbol" aria-roledescription="point" transform="translate(340,126.66666666666669)" d="M2.739,0A2.739,2.739,0,1,1,-2.739,0A2.739,2.739,0,1,1,2.739,0" fill="#1f4e79" stroke-width="2" opacity="1"></path><path aria-label="Trial: 2; Score: 3; Series: B; id: B-2" role="graphics-symbol" aria-roledescription="point" transform="translate(340,0)" d="M2.739,0A2.739,2.739,0,1,1,-2.739,0A2.739,2.739,0,1,1,2.739,0" fill="#a33b20" stroke-width="2" opacity="1"></path><path aria-label="Trial: 3; Score: 3; Series: A; id: A-3" role="graphics-symbol" aria-roledescription="point" transform="translate(680,0)" d="M2.739,0A2.739,2.739,0,1,1,-2.739,0A2.739,2.739,0,1,1,2.739,0" fill="#1f4e79" stroke-width="2" opacity="1"></path><path aria-label="Trial: 3; Score: 2; Series: B; id: B-3" role="graphics-symbol" aria-roledescription="point" transform="translate(680,126.66666666666669)" d="M2.739,0A2.739,2.739,0,1,1,-2.739,0A2.739,2.739,0,1,1,2.739,0" fill="#a33b20" stroke-width="2" opacity="1"></path></g><g class="mark-group role-legend" role="graphics-symbol" aria-roledescription="legend" aria-label="Symbol legend for fill color and stroke color with 2 values: A, B"><g transform="translate(702,0)"><path class="background" aria-hidden="true" d="M0,0h28v36h-28Z" pointer-events="none"></path><g><g class="mark-group role-legend-entry"><g transform="translate(0,0)"><path class="background" aria-hidden="true" d="M0,0h0v0h0Z" pointer-events="none"></path><g><g class="mark-group role-scope" role="graphics-object" aria-roledescription="group mark container"><g transform="translate(0,0)"><path class="background" aria-hidden="true" d="M0,0h27.337890625v15.477225575051662h-27.337890625Z" pointer-events="none" opacity="1"></path><g><g class="mark-symbol role-legend-symbol" pointer-events="none"><path transform="translate(7,7)" d="M5.477,0A5.477,5.477,0,1,1,-5.477,0A5.477,5.477,0,1,1,5.477,0" fill="#1f4e79" stroke="#1f4e79" stroke-width="1.5" opacity="1"></path></g><g class="mark-text role-legend-label" pointer-events="none"><text text-anchor="start" transform="translate(18,11)" font-family="sans-serif" font-size="14px" fill="#222222" opacity="1">A</text></g></g><path class="foreground" aria-hidden="true" d="" pointer-events="none" display="none"></path></g><g transform="translate(0,20)"><path class="background" aria-hidden="true" d="M0,0h27.337890625v15.477225575051662h-27.337890625Z" pointer-events="none" opacity="1"></path><g><g class="mark-symbol role-legend-symbol" pointer-events="none"><path transform="translate(7,7)" d="M5.477,0A5.477,5.477,0,1,1,-5.477,0A5.477,5.477,0,1,1,5.477,0" fill="#a33b20" stroke="#a33b20" stroke-width="1.5" opacity="1"></path></g><g class="mark-text role-legend-label" pointer-events="none"><text text-anchor="start" transform="translate(18,11)" font-family="sans-serif" font-size="14px" fill="#222222" opacity="1">B</text></g></g><path class="foreground" aria-hidden="true" d="" pointer-events="none" display="none"></path></g></g></g><path class="foreground" aria-hidden="true" d="" pointer-events="none" display="none"></path></g></g></g><path class="foreground" aria-hidden="true" d="" pointer-events="none" display="none"></path></g></g></g><path class="foreground" aria-hidden="true" d="" display="none"></path></g></g></g></svg>